<svg id="Capa_1" enable-background="new 0 0 512 512" height="512" viewBox="0 0 512 512" width="512" xmlns="http://www.w3.org/2000/svg"><g><path d="m436.435 209.83h-16.029c.38-4.571.585-9.192.585-13.861 0-91.122-73.869-164.991-164.991-164.991-76.392 0-140.648 51.922-159.428 122.398-53.964 3.773-96.572 48.739-96.572 103.661 0 57.395 46.528 103.923 103.923 103.923h152.077 180.435c41.733 0 75.565-33.832 75.565-75.565 0-41.733-33.832-75.565-75.565-75.565z" fill="#9dc6fb"/><path d="m120.583 257.037c0 28.701 11.631 54.682 30.442 73.483 18.811 18.811 44.792 30.442 73.483 30.442h-120.583c-28.701 0-54.682-11.631-73.493-30.442-18.801-18.801-30.432-44.782-30.432-73.483 0-54.919 42.608-99.886 96.569-103.657 18.78-70.474 83.043-122.406 159.431-122.406 21.283 0 41.619 4.028 60.297 11.373-48.367 18.997-85.588 60.193-99.134 111.033-53.972 3.771-96.58 48.738-96.58 103.657z" fill="#80b4fb"/><path d="m333.704 316.08h-18.047v-119.377c0-19.373-15.705-35.078-35.078-35.078h-49.159c-19.373 0-35.078 15.705-35.078 35.078v119.377h-18.047c-31.302 0-48.258 36.648-27.994 60.506l77.704 91.487c14.668 17.269 41.321 17.269 55.989 0l77.704-91.487c20.264-23.857 3.308-60.506-27.994-60.506z" fill="#f9f6f9"/><path d="m277.92 473.784c-15.123 11.28-37.097 9.385-49.912-5.707l-77.707-91.49c-20.264-23.859-3.307-60.503 27.99-60.503h18.049v-119.385c0-19.367 15.7-35.078 35.078-35.078h43.855c-19.378 0-35.078 15.71-35.078 35.078v119.385h-18.049c-31.307 0-48.264 36.644-28 60.503l77.707 91.49c1.843 2.173 3.883 4.079 6.067 5.707z" fill="#dddaec"/></g></svg>