<svg id="Icons" height="512" viewBox="0 0 74 74" width="512" xmlns="http://www.w3.org/2000/svg"><path d="m52.7 14.33a1 1 0 0 1 -.6-.2 16.341 16.341 0 0 0 -2.478-1.555 1 1 0 1 1 .9-1.785 18.446 18.446 0 0 1 2.778 1.742 1 1 0 0 1 -.6 1.8z"/><path d="m21 51.12h-6.96a12.04 12.04 0 0 1 -.583-24.066 11.388 11.388 0 0 1 12.683-7.646 18.075 18.075 0 0 1 5.282-6.744 1 1 0 1 1 1.236 1.572 16.086 16.086 0 0 0 -4.989 6.684 1 1 0 0 1 -1.16.6 9.605 9.605 0 0 0 -2.249-.273 9.369 9.369 0 0 0 -9.081 7.039 1 1 0 0 1 -.969.751h-.17a10.04 10.04 0 1 0 0 20.08h6.96a1 1 0 1 1 0 2z"/><path d="m40.258 11a1 1 0 0 1 -.124-1.992 20.3 20.3 0 0 1 3.17-.129 1.018 1.018 0 0 1 .986 1.034.958.958 0 0 1 -1.014.966c-.305-.01-.57-.019-.836-.019a16.409 16.409 0 0 0 -2.055.132.9.9 0 0 1 -.127.008z"/><path d="m59.96 51.12h-6.96a1 1 0 0 1 0-2h6.96a10.04 10.04 0 1 0 0-20.08h-.71a1 1 0 0 1 -1-1.067l.021-.295c.023-.313.047-.619.047-.938a15.867 15.867 0 0 0 -1.2-6.079 1 1 0 0 1 1.85-.762 17.88 17.88 0 0 1 1.352 6.841c0 .1 0 .2-.006.305a12.04 12.04 0 0 1 -.354 24.075z"/><path d="m51 65.135h-28a1 1 0 0 1 -1-1v-6.02a1 1 0 0 1 2 0v5.02h26v-5.02a1 1 0 0 1 2 0v6.02a1 1 0 0 1 -1 1z"/><path d="m37 58.685a1 1 0 0 1 -1-1v-21.88a1 1 0 0 1 2 0v21.88a1 1 0 0 1 -1 1z"/><path d="m37 58.681a1 1 0 0 1 -.707-.293l-5.566-5.566a1 1 0 1 1 1.414-1.414l4.859 4.859 4.859-4.859a1 1 0 0 1 1.414 1.414l-5.566 5.566a1 1 0 0 1 -.707.293z"/></svg>